<?xml version="1.0" encoding="UTF-8" standalone="no"?>
<!-- Created with Inkscape (http://www.inkscape.org/) -->
<svg
   xmlns:svg="http://www.w3.org/2000/svg"
   xmlns="http://www.w3.org/2000/svg"
   version="1.0"
   width="128"
   height="128"
   id="svg2">
  <defs
     id="defs4" />
  <g
     id="layer1">
    <g
       id="g2189">
      <path
         d="M 38.418952,90.477449 L 38.418952,89.086962 C 36.833503,91.24995 35.2697,93.009512 33.727568,94.365648 C 32.185351,95.721813 30.513464,96.751795 28.711884,97.455622 C 26.910257,98.159449 24.9429,98.511357 22.809814,98.511357 C 19.984873,98.511357 17.368942,97.798945 14.962007,96.374135 C 12.555048,94.949312 10.472401,92.915087 8.7140401,90.271445 C 6.955655,87.627817 5.6224702,84.520689 4.7144613,80.950046 C 3.8064522,77.379432 3.3524478,73.516986 3.3524478,69.362679 C 3.3524478,60.573469 5.1540513,53.724045 8.7572709,48.81439 C 12.360478,43.904837 17.102313,41.450033 22.982775,41.449974 C 26.38418,41.450033 29.252339,42.145261 31.58725,43.535704 C 33.922102,44.926235 36.199331,47.063456 38.418952,49.947381 L 38.418952,29.193102 C 38.418915,26.309205 38.901748,24.129064 39.867439,22.652677 C 40.83307,21.176436 42.209499,20.438272 43.996736,20.438199 C 45.783877,20.438272 47.160304,21.116347 48.12602,22.472424 C 49.091625,23.828648 49.574458,25.828536 49.574507,28.472105 L 49.574507,90.477449 C 49.574458,93.155428 49.055602,95.163902 48.017925,96.502884 C 46.980149,97.841865 45.639758,98.511357 43.996736,98.511357 C 42.382446,98.511357 41.049262,97.816114 39.997157,96.425625 C 38.944979,95.035152 38.418915,93.052419 38.418952,90.477449 L 38.418952,90.477449 z M 15.199821,69.826165 C 15.199809,73.637149 15.697056,76.88161 16.691551,79.55956 C 17.686023,82.237552 19.048036,84.254609 20.777605,85.610746 C 22.507123,86.96691 24.395214,87.644986 26.441863,87.644971 C 28.51729,87.644986 30.412575,87.001246 32.127742,85.713741 C 33.842834,84.426278 35.212055,82.452126 36.235404,79.791316 C 37.25868,77.130521 37.770341,73.808817 37.770378,69.826165 C 37.770341,66.083911 37.25868,62.865189 36.235404,60.170013 C 35.212055,57.474926 33.828419,55.414947 32.084499,53.99008 C 30.340516,52.565315 28.430804,51.852904 26.355388,51.852859 C 24.193424,51.852904 22.262104,52.582483 20.561412,54.041584 C 18.860674,55.500774 17.541903,57.595089 16.605078,60.324513 C 15.668228,63.054028 15.199809,66.221243 15.199821,69.826165 L 15.199821,69.826165 z "
         style="font-size:72px;font-style:normal;font-weight:normal;fill:#ff0000;fill-opacity:1;stroke:#000000;stroke-width:2.68450689;stroke-linecap:butt;stroke-linejoin:miter;stroke-miterlimit:4;stroke-opacity:1;font-family:Arial Rounded MT Bold"
         id="text2160" />
      <path
         d="M 89.677999,28.472105 L 89.677999,49.947381 C 91.897559,47.200788 94.160373,45.097904 96.466457,43.638699 C 98.772491,42.179598 101.62623,41.450033 105.02769,41.449974 C 108.94796,41.450033 112.38542,42.557257 115.3401,44.771691 C 118.2947,46.986214 120.58634,50.196337 122.21503,54.402076 C 123.84363,58.607901 124.65797,63.59477 124.65802,69.362679 C 124.65797,73.619981 124.20396,77.525347 123.29601,81.078794 C 122.38795,84.632269 121.06917,87.713659 119.33967,90.322948 C 117.61009,92.932256 115.51301,94.949312 113.04846,96.374135 C 110.58381,97.798945 107.867,98.511357 104.89799,98.511357 C 103.08193,98.511357 101.374,98.253861 99.774206,97.73887 C 98.174355,97.223879 96.812341,96.545803 95.688153,95.704645 C 94.563927,94.863486 93.60548,93.996573 92.812787,93.103922 C 92.020069,92.211258 90.975135,90.872275 89.677999,89.086962 L 89.677999,90.477449 C 89.677974,93.121091 89.144703,95.12098 88.078159,96.477131 C 87.011593,97.833281 85.656785,98.511357 84.01374,98.511357 C 82.34183,98.511357 81.008645,97.833281 80.014162,96.477131 C 79.019667,95.12098 78.522431,93.121091 78.522431,90.477449 L 78.522431,29.090106 C 78.522431,26.240532 79.005265,24.086144 79.970931,22.626925 C 80.936585,21.167852 82.284183,20.438272 84.01374,20.438199 C 85.829746,20.438272 87.227795,21.133515 88.207876,22.523929 C 89.187934,23.914475 89.677974,25.89721 89.677999,28.472105 L 89.677999,28.472105 z M 90.240099,70.238161 C 90.240075,75.83446 91.313836,80.134655 93.461373,83.138772 C 95.608861,86.142919 98.426582,87.644986 101.91451,87.644971 C 104.88354,87.644986 107.44183,86.108583 109.58938,83.035776 C 111.73684,79.963 112.81061,75.559795 112.81064,69.826165 C 112.81061,66.118233 112.36381,62.925278 111.47025,60.247272 C 110.57661,57.569336 109.30828,55.500774 107.66526,54.041584 C 106.02214,52.582483 104.10525,51.852904 101.91451,51.852859 C 99.666086,51.852904 97.662693,52.582483 95.904357,54.041584 C 94.145959,55.500774 92.762323,57.612257 91.753451,60.376019 C 90.744529,63.139854 90.240075,66.427235 90.240099,70.238161 L 90.240099,70.238161 z "
         style="font-size:72px;font-style:normal;font-weight:normal;fill:#008000;fill-opacity:1;stroke:#000000;stroke-width:2.68450689;stroke-linecap:butt;stroke-linejoin:miter;stroke-miterlimit:4;stroke-opacity:1;font-family:Arial Rounded MT Bold"
         id="text2164" />
      <path
         d="M 70.187697,15.485207 L 70.187697,96.867973 C 70.18766,100.1258 70.06508,102.89494 69.819958,105.17538 C 69.574762,107.45588 69.019555,109.76891 68.154336,112.11452 C 66.71219,116.05646 64.332727,119.12695 61.01593,121.32596 C 57.69906,123.52497 53.661172,124.62449 48.902268,124.62449 C 44.604785,124.62449 16.062026,125.09413 13.192256,123.56297 C 10.32246,122.03179 8.0078848,119.55586 6.2485288,116.13516 C 5.325583,114.31082 4.5756836,112.20952 3.9988548,109.83132 C 2.8892649,106.72513 3.0836864,104.50479 4.8208424,101.76274 C 5.9456795,100.55738 7.3877884,99.954689 9.1471567,99.954659 C 10.848822,99.954689 12.132295,100.50851 12.997575,101.61614 C 14.66252,104.06157 15.061897,106.32279 16.458622,108.85397 C 16.948915,110.35258 17.770915,111.6394 18.924609,112.71446 C 20.078279,113.78956 46.681402,113.09187 48.815732,113.09186 C 54.497594,113.09187 57.338533,108.38434 57.33857,98.969247 L 57.33857,15.485207 C 57.338533,12.553244 26.212152,16.978235 26.258938,9.3478702 C 26.305739,1.7151023 42.631782,3.4861552 63.208688,3.4861552 C 84.031785,3.4861552 100.50144,1.9467193 100.48988,9.5915882 C 100.47832,17.232423 70.18766,12.553244 70.187697,15.485207 L 70.187697,15.485207 z "
         style="font-size:72px;font-style:normal;font-weight:normal;fill:#ff8000;fill-opacity:1;stroke:#000000;stroke-width:2.61573958;stroke-linecap:butt;stroke-linejoin:miter;stroke-miterlimit:4;stroke-dasharray:none;stroke-opacity:1;font-family:Arial Rounded MT Bold"
         id="text2186" />
    </g>
  </g>
</svg>
